# xmcd
#
# Track frame offsets:
#	150
#	17362
#	32474
#	49398
#	67092
#	83401
#	100274
#	119402
#	140601
#	160656
#
# Disc length: 2360 seconds
#
# Revision: 0
# Processed by: cddbd v1.4PL0 Copyright (c) Steve Scherf et al.
# Submitted via: audiograbber 1.80.04
#
DISCID=7909360a
DTITLE=Leann Rimes - I Need You
DYEAR=2001
DGENRE=Country
TTITLE0=I Need You
TTITLE1=But I Do Love You
TTITLE2=You Are
TTITLE3=Soon
TTITLE4=Can't Fight the Moonlight
TTITLE5=Love Must Be Telling Me Something
TTITLE6=Written in the Stars (Duet with Elton John)
TTITLE7=One of these Days
TTITLE8=I Believe in You
TTITLE9=Together, Forever, Always
EXTD=
EXTT0=
EXTT1=
EXTT2=
EXTT3=
EXTT4=
EXTT5=
EXTT6=
EXTT7=
EXTT8=
EXTT9=
PLAYORDER=
